# xmcd
#
# Track frame offsets: 
#        150
#        12482
#        33720
#        45933
#        69084
#        89678
#        116572
#        127299
#        149130
#        160370
#        174523
#        202832
#        223761
#
# Disc length: 3277 seconds
#
# Revision: 0
# Processed by: cddbd v1.5.1PL2 Copyright (c) Steve Scherf et al.
# Submitted via: ExactAudioCopy v0.95a5
#
DISCID=c30ccb0d
DTITLE=Jean Louis Mahjun and Alain Giroux - Two for the show
DYEAR=2004
DGENRE=Blues
TTITLE0=Blues for two
TTITLE1=Long tall mama
TTITLE2=Rag 145
TTITLE3=Like a ship
TTITLE4=Angy
TTITLE5=Shake it babe
TTITLE6=Train story
TTITLE7=Wining boy
TTITLE8=Sweet Georgia Brown
TTITLE9=Hey hey
TTITLE10=Dust my blues
TTITLE11=I'm in the mood for love
TTITLE12=Embrovillement
EXTD=
EXTT0=
EXTT1=
EXTT2=
EXTT3=
EXTT4=
EXTT5=
EXTT6=
EXTT7=
EXTT8=
EXTT9=
EXTT10=
EXTT11=
EXTT12=
PLAYORDER=
